HIERARCHY
ROOT pelvis
{
  OFFSET 0 100 0
  CHANNELS 6 Xposition Yposition Zposition Zrotation Xrotation Yrotation
  JOINT pelvis_right_femur
  {
    OFFSET -10.78128 -3.44521 -0.5502486
    CHANNELS 3 Zrotation Xrotation Yrotation
    JOINT right_femur_tibia
    {
      OFFSET -0.8047443 -44.0398 -0.1307829
      CHANNELS 3 Zrotation Xrotation Yrotation
      JOINT right_tibia_foot
      {
        OFFSET 3.006224 -47.83518 -5
        CHANNELS 3 Zrotation Xrotation Yrotation
        End Site
        {
          OFFSET 0 -5 15
        }
      }
    }
  }
  JOINT pelvis_left_femur
  {
    OFFSET 10.78128 -3.44521 -0.5502486
    CHANNELS 3 Zrotation Xrotation Yrotation
    JOINT left_femur_tibia
    {
      OFFSET 0.8047443 -44.0398 -0.1307829
      CHANNELS 3 Zrotation Xrotation Yrotation
      JOINT left_tibia_foot
      {
        OFFSET -4.370144 -48.10324 -4.275266
        CHANNELS 3 Zrotation Xrotation Yrotation
        End Site
        {
          OFFSET 0 -5 15
        }
      }
    }
  }
  JOINT pelvis_spine1
  {
    OFFSET 0 6.468898 -3.129235
    CHANNELS 3 Zrotation Xrotation Yrotation
    JOINT spine1
    {
      OFFSET 0 23.15396 4.99043
      CHANNELS 3 Zrotation Xrotation Yrotation
      JOINT spine2
      {
        OFFSET 0 20.79997 -5.064912
        CHANNELS 3 Zrotation Xrotation Yrotation
        JOINT neck
        {
          OFFSET 0 14.38658 9.616178
          CHANNELS 3 Zrotation Xrotation Yrotation
          End Site
          {
            OFFSET 0 20 0
          }
        }
      }
      JOINT right_manubrium
      {
        OFFSET -5.722621 16.35077 3.967754
        CHANNELS 3 Zrotation Xrotation Yrotation
        JOINT right_clavicle
        {
          OFFSET -13.16364 1.694482 -4.693211
          CHANNELS 3 Zrotation Xrotation Yrotation
          JOINT right_humerus
          {
            OFFSET -28.5034 -0.3100689 -2.792744
            CHANNELS 3 Zrotation Xrotation Yrotation
            JOINT right_radius
            {
              OFFSET -25.15693 0.02248979 -1.271978
              CHANNELS 3 Zrotation Xrotation Yrotation
              End Site
              {
                OFFSET -15 0 0
              }
            }
          }
        }
      }
      JOINT left_manubrium
      {
        OFFSET 5.722621 16.35077 3.967754
        CHANNELS 3 Zrotation Xrotation Yrotation
        JOINT left_clavicle
        {
          OFFSET 13.16364 1.694482 -4.693211
          CHANNELS 3 Zrotation Xrotation Yrotation
          JOINT left_humerus
          {
            OFFSET 29.39168 -1.063119 -2.237045
            CHANNELS 3 Zrotation Xrotation Yrotation
            JOINT left_radius
            {
              OFFSET 24.59957 -0.9528479 0.9047498
              CHANNELS 3 Zrotation Xrotation Yrotation
              End Site
              {
                OFFSET 15 -0 -0
              }
            }
          }
        }
      }
    }
  }
}
MOTION
Frames: 21
Frame Time: 0.0416666666667
2410.501 104.4178 1663.064 7.280268 3.662281 101.1219 0.825173 6.797976 7.205565 -0 30.07638 -0 5.345366 -7.066869 -8.018937 -2.676898 -13.7596 -4.075197 -0 22.86849 -0 -5.160858 -12.55452 18.93057 -2.03824 0.6534664 6.993919 -0.6402132 10.22753 -4.162355 2.744539 22.38747 4.479364 1.153936 -13.78698 7.109581 2.204908 -18.36644 10.95929 82.79241 21.67763 -9.389159 -0 0 21.03979 -22.98068 12.30933 12.22931 3.903686 -15.82777 -4.249483 -89.19486 22.93494 18.3815 0 0 -14.44093 -3.184386 6.420329 17.00315
2416.966 104.416 1660.862 7.266646 3.689344 101.3344 0.825173 6.797976 7.205565 -0 30.07638 -0 5.345366 -7.066869 -8.018937 -2.676898 -13.7596 -4.075197 -0 22.86849 -0 -5.160858 -12.55452 18.93057 -2.03824 0.6534664 6.993919 -0.6402132 10.22753 -4.162355 2.744539 22.38747 4.479364 1.153936 -13.78698 7.109581 2.204908 -18.36644 10.95929 82.79241 21.67763 -9.389159 -0 0 21.03979 -22.98068 12.30933 12.22931 3.903686 -15.82777 -4.249483 -89.19486 22.93494 18.3815 0 0 -14.44093 -3.184386 6.420329 17.00315
2423.422 104.4142 1658.636 7.252923 3.716355 101.5469 0.825173 6.797976 7.205565 -0 30.07638 -0 5.345366 -7.066869 -8.018937 -2.676898 -13.7596 -4.075197 -0 22.86849 -0 -5.160858 -12.55452 18.93057 -2.03824 0.6534664 6.993919 -0.6402132 10.22753 -4.162355 2.744539 22.38747 4.479364 1.153936 -13.78698 7.109581 2.204908 -18.36644 10.95929 82.79241 21.67763 -9.389159 -0 0 21.03979 -22.98068 12.30933 12.22931 3.903686 -15.82777 -4.249483 -89.19486 22.93494 18.3815 0 0 -14.44093 -3.184386 6.420329 17.00315
2429.871 104.4123 1656.386 7.2391 3.743316 101.7594 0.825173 6.797976 7.205565 -0 30.07638 -0 5.345366 -7.066869 -8.018937 -2.676898 -13.7596 -4.075197 -0 22.86849 -0 -5.160858 -12.55452 18.93057 -2.03824 0.6534664 6.993919 -0.6402132 10.22753 -4.162355 2.744539 22.38747 4.479364 1.153936 -13.78698 7.109581 2.204908 -18.36644 10.95929 82.79241 21.67763 -9.389159 -0 0 21.03979 -22.98068 12.30933 12.22931 3.903686 -15.82777 -4.249483 -89.19486 22.93494 18.3815 0 0 -14.44093 -3.184386 6.420329 17.00315
2436.31 104.4105 1654.111 7.225176 3.770226 101.9719 0.825173 6.797976 7.205565 -0 30.07638 -0 5.345366 -7.066869 -8.018937 -2.676898 -13.7596 -4.075197 -0 22.86849 -0 -5.160858 -12.55452 18.93057 -2.03824 0.6534664 6.993919 -0.6402132 10.22753 -4.162355 2.744539 22.38747 4.479364 1.153936 -13.78698 7.109581 2.204908 -18.36644 10.95929 82.79241 21.67763 -9.389159 -0 0 21.03979 -22.98068 12.30933 12.22931 3.903686 -15.82777 -4.249483 -89.19486 22.93494 18.3815 0 0 -14.44093 -3.184386 6.420329 17.00315
2442.741 104.4087 1651.813 7.211152 3.797083 102.1844 0.825173 6.797976 7.205565 -0 30.07638 -0 5.345366 -7.066869 -8.018937 -2.676898 -13.7596 -4.075197 -0 22.86849 -0 -5.160858 -12.55452 18.93057 -2.03824 0.6534664 6.993919 -0.6402132 10.22753 -4.162355 2.744539 22.38747 4.479364 1.153936 -13.78698 7.109581 2.204908 -18.36644 10.95929 82.79241 21.67763 -9.389159 -0 0 21.03979 -22.98068 12.30933 12.22931 3.903686 -15.82777 -4.249483 -89.19486 22.93494 18.3815 0 0 -14.44093 -3.184386 6.420329 17.00315
2449.164 104.4069 1649.491 7.197028 3.823889 102.397 0.825173 6.797976 7.205565 -0 30.07638 -0 5.345366 -7.066869 -8.018937 -2.676898 -13.7596 -4.075197 -0 22.86849 -0 -5.160858 -12.55452 18.93057 -2.03824 0.6534664 6.993919 -0.6402132 10.22753 -4.162355 2.744539 22.38747 4.479364 1.153936 -13.78698 7.109581 2.204908 -18.36644 10.95929 82.79241 21.67763 -9.389159 -0 0 21.03979 -22.98068 12.30933 12.22931 3.903686 -15.82777 -4.249483 -89.19486 22.93494 18.3815 0 0 -14.44093 -3.184386 6.420329 17.00315
2455.578 104.4051 1647.145 7.182803 3.850642 102.6095 0.825173 6.797976 7.205565 -0 30.07638 -0 5.345366 -7.066869 -8.018937 -2.676898 -13.7596 -4.075197 -0 22.86849 -0 -5.160858 -12.55452 18.93057 -2.03824 0.6534664 6.993919 -0.6402132 10.22753 -4.162355 2.744539 22.38747 4.479364 1.153936 -13.78698 7.109581 2.204908 -18.36644 10.95929 82.79241 21.67763 -9.389159 -0 0 21.03979 -22.98068 12.30933 12.22931 3.903686 -15.82777 -4.249483 -89.19486 22.93494 18.3815 0 0 -14.44093 -3.184386 6.420329 17.00315
2461.983 104.4033 1644.775 7.168479 3.877342 102.8221 0.825173 6.797976 7.205565 -0 30.07638 -0 5.345366 -7.066869 -8.018937 -2.676898 -13.7596 -4.075197 -0 22.86849 -0 -5.160858 -12.55452 18.93057 -2.03824 0.6534664 6.993919 -0.6402132 10.22753 -4.162355 2.744539 22.38747 4.479364 1.153936 -13.78698 7.109581 2.204908 -18.36644 10.95929 82.79241 21.67763 -9.389159 -0 0 21.03979 -22.98068 12.30933 12.22931 3.903686 -15.82777 -4.249483 -89.19486 22.93494 18.3815 0 0 -14.44093 -3.184386 6.420329 17.00315
2468.379 104.4014 1642.381 7.154055 3.903989 103.0346 0.825173 6.797976 7.205565 -0 30.07638 -0 5.345366 -7.066869 -8.018937 -2.676898 -13.7596 -4.075197 -0 22.86849 -0 -5.160858 -12.55452 18.93057 -2.03824 0.6534664 6.993919 -0.6402132 10.22753 -4.162355 2.744539 22.38747 4.479364 1.153936 -13.78698 7.109581 2.204908 -18.36644 10.95929 82.79241 21.67763 -9.389159 -0 0 21.03979 -22.98068 12.30933 12.22931 3.903686 -15.82777 -4.249483 -89.19486 22.93494 18.3815 0 0 -14.44093 -3.184386 6.420329 17.00315
2474.766 104.3996 1639.963 7.139532 3.930583 103.2472 0.825173 6.797976 7.205565 -0 30.07638 -0 5.345366 -7.066869 -8.018937 -2.676898 -13.7596 -4.075197 -0 22.86849 -0 -5.160858 -12.55452 18.93057 -2.03824 0.6534664 6.993919 -0.6402132 10.22753 -4.162355 2.744539 22.38747 4.479364 1.153936 -13.78698 7.109581 2.204908 -18.36644 10.95929 82.79241 21.67763 -9.389159 -0 0 21.03979 -22.98068 12.30933 12.22931 3.903686 -15.82777 -4.249483 -89.19486 22.93494 18.3815 0 0 -14.44093 -3.184386 6.420329 17.00315
2481.144 104.3978 1637.521 7.124909 3.957122 103.4598 0.825173 6.797976 7.205565 -0 30.07638 -0 5.345366 -7.066869 -8.018937 -2.676898 -13.7596 -4.075197 -0 22.86849 -0 -5.160858 -12.55452 18.93057 -2.03824 0.6534664 6.993919 -0.6402132 10.22753 -4.162355 2.744539 22.38747 4.479364 1.153936 -13.78698 7.109581 2.204908 -18.36644 10.95929 82.79241 21.67763 -9.389159 -0 0 21.03979 -22.98068 12.30933 12.22931 3.903686 -15.82777 -4.249483 -89.19486 22.93494 18.3815 0 0 -14.44093 -3.184386 6.420329 17.00315
2487.513 104.396 1635.056 7.110187 3.983607 103.6725 0.825173 6.797976 7.205565 -0 30.07638 -0 5.345366 -7.066869 -8.018937 -2.676898 -13.7596 -4.075197 -0 22.86849 -0 -5.160858 -12.55452 18.93057 -2.03824 0.6534664 6.993919 -0.6402132 10.22753 -4.162355 2.744539 22.38747 4.479364 1.153936 -13.78698 7.109581 2.204908 -18.36644 10.95929 82.79241 21.67763 -9.389159 -0 0 21.03979 -22.98068 12.30933 12.22931 3.903686 -15.82777 -4.249483 -89.19486 22.93494 18.3815 0 0 -14.44093 -3.184386 6.420329 17.00315
2493.873 104.3942 1632.567 7.095367 4.010038 103.8851 0.825173 6.797976 7.205565 -0 30.07638 -0 5.345366 -7.066869 -8.018937 -2.676898 -13.7596 -4.075197 -0 22.86849 -0 -5.160858 -12.55452 18.93057 -2.03824 0.6534664 6.993919 -0.6402132 10.22753 -4.162355 2.744539 22.38747 4.479364 1.153936 -13.78698 7.109581 2.204908 -18.36644 10.95929 82.79241 21.67763 -9.389159 -0 0 21.03979 -22.98068 12.30933 12.22931 3.903686 -15.82777 -4.249483 -89.19486 22.93494 18.3815 0 0 -14.44093 -3.184386 6.420329 17.00315
2500.223 104.3924 1630.054 7.080448 4.036413 104.0977 0.825173 6.797976 7.205565 -0 30.07638 -0 5.345366 -7.066869 -8.018937 -2.676898 -13.7596 -4.075197 -0 22.86849 -0 -5.160858 -12.55452 18.93057 -2.03824 0.6534664 6.993919 -0.6402132 10.22753 -4.162355 2.744539 22.38747 4.479364 1.153936 -13.78698 7.109581 2.204908 -18.36644 10.95929 82.79241 21.67763 -9.389159 -0 0 21.03979 -22.98068 12.30933 12.22931 3.903686 -15.82777 -4.249483 -89.19486 22.93494 18.3815 0 0 -14.44093 -3.184386 6.420329 17.00315
2506.564 104.3905 1627.517 7.06543 4.062734 104.3104 0.825173 6.797976 7.205565 -0 30.07638 -0 5.345366 -7.066869 -8.018937 -2.676898 -13.7596 -4.075197 -0 22.86849 -0 -5.160858 -12.55452 18.93057 -2.03824 0.6534664 6.993919 -0.6402132 10.22753 -4.162355 2.744539 22.38747 4.479364 1.153936 -13.78698 7.109581 2.204908 -18.36644 10.95929 82.79241 21.67763 -9.389159 -0 0 21.03979 -22.98068 12.30933 12.22931 3.903686 -15.82777 -4.249483 -89.19486 22.93494 18.3815 0 0 -14.44093 -3.184386 6.420329 17.00315
2512.895 104.3887 1624.957 7.050314 4.088998 104.5231 0.825173 6.797976 7.205565 -0 30.07638 -0 5.345366 -7.066869 -8.018937 -2.676898 -13.7596 -4.075197 -0 22.86849 -0 -5.160858 -12.55452 18.93057 -2.03824 0.6534664 6.993919 -0.6402132 10.22753 -4.162355 2.744539 22.38747 4.479364 1.153936 -13.78698 7.109581 2.204908 -18.36644 10.95929 82.79241 21.67763 -9.389159 -0 0 21.03979 -22.98068 12.30933 12.22931 3.903686 -15.82777 -4.249483 -89.19486 22.93494 18.3815 0 0 -14.44093 -3.184386 6.420329 17.00315
2519.217 104.3869 1622.373 7.035099 4.115206 104.7357 0.825173 6.797976 7.205565 -0 30.07638 -0 5.345366 -7.066869 -8.018937 -2.676898 -13.7596 -4.075197 -0 22.86849 -0 -5.160858 -12.55452 18.93057 -2.03824 0.6534664 6.993919 -0.6402132 10.22753 -4.162355 2.744539 22.38747 4.479364 1.153936 -13.78698 7.109581 2.204908 -18.36644 10.95929 82.79241 21.67763 -9.389159 -0 0 21.03979 -22.98068 12.30933 12.22931 3.903686 -15.82777 -4.249483 -89.19486 22.93494 18.3815 0 0 -14.44093 -3.184386 6.420329 17.00315
2525.529 104.3851 1619.766 7.019787 4.141358 104.9484 0.825173 6.797976 7.205565 -0 30.07638 -0 5.345366 -7.066869 -8.018937 -2.676898 -13.7596 -4.075197 -0 22.86849 -0 -5.160858 -12.55452 18.93057 -2.03824 0.6534664 6.993919 -0.6402132 10.22753 -4.162355 2.744539 22.38747 4.479364 1.153936 -13.78698 7.109581 2.204908 -18.36644 10.95929 82.79241 21.67763 -9.389159 -0 0 21.03979 -22.98068 12.30933 12.22931 3.903686 -15.82777 -4.249483 -89.19486 22.93494 18.3815 0 0 -14.44093 -3.184386 6.420329 17.00315
2531.832 104.3833 1617.135 7.004377 4.167452 105.1612 0.825173 6.797976 7.205565 -0 30.07638 -0 5.345366 -7.066869 -8.018937 -2.676898 -13.7596 -4.075197 -0 22.86849 -0 -5.160858 -12.55452 18.93057 -2.03824 0.6534664 6.993919 -0.6402132 10.22753 -4.162355 2.744539 22.38747 4.479364 1.153936 -13.78698 7.109581 2.204908 -18.36644 10.95929 82.79241 21.67763 -9.389159 -0 0 21.03979 -22.98068 12.30933 12.22931 3.903686 -15.82777 -4.249483 -89.19486 22.93494 18.3815 0 0 -14.44093 -3.184386 6.420329 17.00315
2538.124 104.3815 1614.481 6.98887 4.19349 105.3739 0.825173 6.797976 7.205565 -0 30.07638 -0 5.345366 -7.066869 -8.018937 -2.676898 -13.7596 -4.075197 -0 22.86849 -0 -5.160858 -12.55452 18.93057 -2.03824 0.6534664 6.993919 -0.6402132 10.22753 -4.162355 2.744539 22.38747 4.479364 1.153936 -13.78698 7.109581 2.204908 -18.36644 10.95929 82.79241 21.67763 -9.389159 -0 0 21.03979 -22.98068 12.30933 12.22931 3.903686 -15.82777 -4.249483 -89.19486 22.93494 18.3815 0 0 -14.44093 -3.184386 6.420329 17.00315
